<svg xmlns="http://www.w3.org/2000/svg" xmlns:xlink="http://www.w3.org/1999/xlink" width="500" height="500" viewBox="0 0 500 500">
  <defs>
    <clipPath id="a">
      <rect x="157.95905" y="33.12766" width="170.55319" height="344.17021" rx="80.84045" fill="#18130d"/>
    </clipPath>
  </defs>
  <g>
    <path d="M92.66716,192.6966h13.77553v19.67932A55.27753,55.27753,0,0,1,125.218,195.5501a49.91732,49.91732,0,0,1,23.689-5.60861q22.80341,0,39.02313,16.43223a54.28205,54.28205,0,0,1,16.22041,39.55544q0,23.61518-16.07281,40.09661-16.07145,16.48246-38.77715,16.48143a52.139,52.139,0,0,1-23.49355-5.31341,59.14086,59.14086,0,0,1-19.36431-15.84186v57.562H92.66716Zm55.1021,10.52843a40.46351,40.46351,0,0,0-30.08955,12.4827q-12.22269,12.483-12.221,31.0578a44.07306,44.07306,0,0,0,5.44871,21.91784,39.73906,39.73906,0,0,0,15.60816,15.42982,43.19157,43.19157,0,0,0,21.45046,5.70085,40.44154,40.44154,0,0,0,20.86008-5.75,42.19476,42.19476,0,0,0,15.56033-16.0694,43.41141,43.41141,0,0,0,.04783-43.24393,41.47834,41.47834,0,0,0-36.665-21.52563Z" fill="#535370"/>
    <path d="M227.33119,353.267h31.80892V500.575H227.33119Z" fill="#535370"/>
    <path d="M315.27582,189.94149h86.6795L335.12857,295.36992h64.657v13.56134H308.98369l66.76573-105.5378h-60.4736Z" fill="#535370"/>
    <g>
      <rect x="157.95905" y="33.12766" width="170.55319" height="344.17021" rx="80.84045" fill="#18130d"/>
      <g clip-path="url(#a)">
        <rect x="220.76756" y="3.60941" width="44.93617" height="403.20671" fill="#a81817"/>
        <rect x="178.89522" y="3.60941" width="44.93617" height="403.20671" fill="#18130d"/>
        <rect x="131.9165" y="3.60941" width="44.93617" height="403.20671" fill="#2a3086"/>
        <rect x="265.70373" y="-6.90974" width="44.93617" height="384.20761" fill="#debf33"/>
        <rect x="310.63991" y="-14.44631" width="44.93617" height="403.20671" fill="#417e52"/>
        <ellipse cx="243.61863" cy="313.56711" rx="86.80851" ry="71.51925" fill="#313142"/>
      </g>
    </g>
    <g>
      <path d="M180.32624,295.02759l11.15625,27.84375,11.15625-27.84375h5.83593v34.125h-4.5V315.86353l.42188-14.34375-11.20313,27.63281h-3.44531l-11.17969-27.5625.44532,14.27344v13.28906h-4.5v-34.125Z" fill="#7e7ea5"/>
      <path d="M240.44342,295.02759v23.20313a10.88422,10.88422,0,0,1-3.03515,7.89844,12.23067,12.23067,0,0,1-8.168,3.44531l-1.19531.04687q-5.60157,0-8.92969-3.02343a10.81312,10.81312,0,0,1-3.375-8.32032v-23.25h4.45312V318.137a7.11737,7.11737,0,0,0,7.85157,7.80469,7.88938,7.88938,0,0,0,5.84765-2.03907,7.79059,7.79059,0,0,0,2.02735-5.74218V295.02759Z" fill="#7e7ea5"/>
      <path d="M257.59967,313.94166q-5.78906-1.66407-8.42578-4.08985a7.81422,7.81422,0,0,1-2.63672-5.98828,8.25448,8.25448,0,0,1,3.22266-6.668,12.80774,12.80774,0,0,1,8.37891-2.63672,13.98042,13.98042,0,0,1,6.26953,1.35938,10.30882,10.30882,0,0,1,4.26562,3.75,9.589,9.589,0,0,1,1.51172,5.22656h-4.52344a6.23892,6.23892,0,0,0-1.96875-4.88037,8.00706,8.00706,0,0,0-5.55468-1.77588,8.19575,8.19575,0,0,0-5.19141,1.46777,4.89488,4.89488,0,0,0-1.86328,4.07325,4.40476,4.40476,0,0,0,1.76953,3.53418,17.361,17.361,0,0,0,6.02344,2.6416,27.928,27.928,0,0,1,6.65625,2.63867,10.10086,10.10086,0,0,1,3.5625,3.36328,8.584,8.584,0,0,1,1.16015,4.52344,7.97319,7.97319,0,0,1-3.23437,6.64453,13.79045,13.79045,0,0,1-8.64844,2.49609,16.04014,16.04014,0,0,1-6.5625-1.34765,11.04411,11.04411,0,0,1-4.69922-3.69141,9.00851,9.00851,0,0,1-1.65234-5.32031h4.52344a5.87743,5.87743,0,0,0,2.28515,4.88672,9.62184,9.62184,0,0,0,6.10547,1.793,8.84511,8.84511,0,0,0,5.46094-1.45313,4.72,4.72,0,0,0,1.89844-3.96094,4.63366,4.63366,0,0,0-1.75782-3.8789A20.26549,20.26549,0,0,0,257.59967,313.94166Z" fill="#7e7ea5"/>
      <path d="M280.84967,329.15259h-4.5v-34.125h4.5Z" fill="#7e7ea5"/>
      <path d="M314.1778,318.32447a12.55506,12.55506,0,0,1-3.99609,8.35547,13.09611,13.09611,0,0,1-8.94141,2.9414,12.025,12.025,0,0,1-9.69141-4.33593q-3.64452-4.33594-3.64453-11.60157v-3.28125a19.44322,19.44322,0,0,1,1.69922-8.36718,12.69232,12.69232,0,0,1,4.81641-5.543,13.41053,13.41053,0,0,1,7.21875-1.9336,12.33091,12.33091,0,0,1,8.71875,3.03516,12.70583,12.70583,0,0,1,3.82031,8.40234h-4.52344q-.58593-4.08984-2.543-5.92431a7.69508,7.69508,0,0,0-5.47265-1.8335A8.051,8.051,0,0,0,294.877,301.429q-2.44921,3.19042-2.44922,9.07715v3.30859q0,5.55909,2.32031,8.84278a7.49727,7.49727,0,0,0,6.49219,3.28418,8.65953,8.65953,0,0,0,5.75391-1.69922q2.00389-1.69923,2.66015-5.918Z" fill="#7e7ea5"/>
    </g>
  </g>
</svg>
