<svg width="25" height="30" viewBox="0 0 25 30" fill="none" xmlns="http://www.w3.org/2000/svg">
<g clip-path="url(#clip0_154:18)">
<path d="M18.6298 14.83C16.8757 15.7182 15.1592 16.5881 13.442 17.4566C9.34837 19.5271 5.25483 21.5978 1.1614 23.6688C0.394596 24.0574 -0.042289 24.6475 0.00323871 25.57C0.0425501 26.3665 -0.00225841 27.167 0.0146848 27.9651C0.0423982 29.2705 1.22003 30.0103 2.37194 29.4287C9.58302 25.7879 16.7922 22.1431 23.9994 18.4945C24.6996 18.1411 25.0084 17.6139 24.9928 16.8251C24.9668 15.5081 24.9501 14.1888 24.998 12.873C25.0309 11.9699 24.6549 11.4294 23.8759 11.0393C19.7469 8.97171 15.6297 6.88012 11.5085 4.79657C8.48304 3.26698 5.44895 1.75442 2.43707 0.197873C1.35633 -0.360653 -0.060078 0.294865 0.00494474 1.76512C0.0410719 2.58199 0.0341362 3.40266 0.00485443 4.22009C-0.0230183 4.99822 0.336166 5.52388 0.983689 5.85254C4.17228 7.47094 7.36466 9.08168 10.5609 10.6848C13.1579 11.9953 15.7537 13.3083 18.3483 14.6239C18.4341 14.6674 18.5063 14.7384 18.6298 14.83Z" fill="white"/>
</g>
<defs>
<clipPath id="clip0_154:18">
<rect width="25" height="29.6296" fill="white"/>
</clipPath>
</defs>
</svg>
