<svg width="25" height="30" viewBox="0 0 25 30" fill="none" xmlns="http://www.w3.org/2000/svg">
<g clip-path="url(#clip0_154:16)">
<path d="M6.37018 14.83C8.12427 15.7182 9.84078 16.5881 11.558 17.4566C15.6516 19.5271 19.7452 21.5978 23.8386 23.6688C24.6054 24.0574 25.0423 24.6475 24.9968 25.57C24.9574 26.3665 25.0023 27.167 24.9853 27.9651C24.9576 29.2705 23.78 30.0103 22.6281 29.4287C15.417 25.7879 8.20783 22.1431 1.00059 18.4945C0.300428 18.1411 -0.00835877 17.6139 0.00719322 16.8251C0.0331602 15.5081 0.0498652 14.1888 0.00198192 12.873C-0.0308847 11.9699 0.345103 11.4294 1.12409 11.0393C5.25307 8.97171 9.3703 6.88012 13.4915 4.79657C16.517 3.26698 19.551 1.75442 22.5629 0.197873C23.6437 -0.360653 25.0601 0.294865 24.995 1.76512C24.9589 2.58199 24.9659 3.40266 24.9951 4.22009C25.023 4.99822 24.6638 5.52388 24.0163 5.85254C20.8277 7.47094 17.6353 9.08168 14.4391 10.6848C11.8421 11.9953 9.2463 13.3083 6.65173 14.6239C6.5659 14.6674 6.49373 14.7384 6.37018 14.83Z" fill="white"/>
</g>
<defs>
<clipPath id="clip0_154:16">
<rect width="25" height="29.6296" fill="white"/>
</clipPath>
</defs>
</svg>
