<svg width="22" height="22" viewBox="0 0 22 22" fill="none" xmlns="http://www.w3.org/2000/svg">
<path d="M10.9952 21.9904C17.0677 21.9904 21.9904 17.0677 21.9904 10.9952C21.9904 4.92273 17.0677 0 10.9952 0C4.92273 0 0 4.92273 0 10.9952C0 17.0677 4.92273 21.9904 10.9952 21.9904Z" fill="#6C5EAB"/>
<path d="M11.0335 14.7081C13.0735 14.7081 14.7273 13.0544 14.7273 11.0143C14.7273 8.97432 13.0735 7.32056 11.0335 7.32056C8.99348 7.32056 7.33972 8.97432 7.33972 11.0143C7.33972 13.0544 8.99348 14.7081 11.0335 14.7081Z" fill="#D6C1FF"/>
<path d="M11.0048 19.043C15.3649 19.043 18.8995 15.5084 18.8995 11.1483C18.8995 6.78813 15.3649 3.25354 11.0048 3.25354C6.64464 3.25354 3.11005 6.78813 3.11005 11.1483C3.11005 15.5084 6.64464 19.043 11.0048 19.043Z" stroke="#7A6CC2" stroke-width="0.731" stroke-miterlimit="10"/>
</svg>
