<svg width="44" height="44" viewBox="0 0 44 44" fill="none" xmlns="http://www.w3.org/2000/svg">
<g clip-path="url(#clip0_154:140)">
<path d="M37.2053 20.3839C36.7215 20.3839 36.2459 20.4355 35.7893 20.5334C35.1778 14.3557 29.9514 9.51245 23.616 9.51245C22.8659 9.51245 22.2571 10.1213 22.2571 10.8714V32.6143C22.2571 33.3644 22.8659 33.9732 23.616 33.9732H37.2053C40.9533 33.9732 44 30.9265 44 27.1786C44 23.4333 40.9533 20.3839 37.2053 20.3839Z" fill="#FF9800"/>
<path d="M18.1803 12.2302C17.4302 12.2302 16.8214 12.839 16.8214 13.5892V32.6142C16.8214 33.3643 17.4302 33.9731 18.1803 33.9731C18.9304 33.9731 19.5392 33.3643 19.5392 32.6142V13.5892C19.5392 12.839 18.9304 12.2302 18.1803 12.2302Z" fill="#FF9800"/>
<path d="M12.7446 17.666C11.9944 17.666 11.3856 18.2748 11.3856 19.0249V32.6143C11.3856 33.3644 11.9944 33.9732 12.7446 33.9732C13.4947 33.9732 14.1035 33.3644 14.1035 32.6143V19.0249C14.1035 18.2748 13.4947 17.666 12.7446 17.666Z" fill="#FF9800"/>
<path d="M7.30876 17.666C6.55863 17.666 5.94983 18.2748 5.94983 19.0249V32.6143C5.94983 33.3644 6.55863 33.9732 7.30876 33.9732C8.05889 33.9732 8.66769 33.3644 8.66769 32.6143V19.0249C8.66769 18.2748 8.05889 17.666 7.30876 17.666Z" fill="#FF9800"/>
<path d="M1.87309 21.7429C1.12296 21.7429 0.51416 22.3517 0.51416 23.1019V31.2554C0.51416 32.0056 1.12296 32.6144 1.87309 32.6144C2.62322 32.6144 3.23202 32.0056 3.23202 31.2554V23.1019C3.23202 22.3517 2.62322 21.7429 1.87309 21.7429Z" fill="#FF9800"/>
</g>
<defs>
<clipPath id="clip0_154:140">
<rect width="43.4858" height="43.4858" fill="white" transform="translate(0.51416)"/>
</clipPath>
</defs>
</svg>
