<svg width="44" height="44" viewBox="0 0 44 44" fill="none" xmlns="http://www.w3.org/2000/svg">
<g clip-path="url(#clip0_154:134)">
<path d="M22 43.8012C34.0083 43.8012 43.7429 33.996 43.7429 21.9007C43.7429 9.80541 34.0083 0.000244141 22 0.000244141C9.99171 0.000244141 0.25708 9.80541 0.25708 21.9007C0.25708 33.996 9.99171 43.8012 22 43.8012Z" fill="#8BC34A"/>
<path d="M30.8629 32.1966C30.5912 32.1966 30.3194 32.1172 30.0829 31.9475C24.9869 28.3393 16.5099 28.1395 10.7861 29.4837C10.0604 29.6561 9.32389 29.1962 9.15538 28.4598C8.98687 27.7234 9.43804 26.987 10.1719 26.8145C16.4637 25.3472 25.8675 25.6155 31.643 29.7081C32.2599 30.1434 32.404 30.9975 31.9746 31.6135C31.7082 31.994 31.2897 32.1966 30.8629 32.1966Z" fill="#37474F"/>
<path d="M33.521 26.8421C33.2438 26.8421 32.9692 26.76 32.7274 26.5848C26.8187 22.3114 19.5566 21.2493 9.8647 23.2422C9.13359 23.3873 8.41064 22.9164 8.26116 22.1746C8.10896 21.4354 8.58458 20.71 9.31841 20.5594C19.8012 18.4049 27.7428 19.6095 34.3146 24.3591C34.9234 24.7999 35.062 25.6567 34.6244 26.2699C34.3608 26.6422 33.945 26.8421 33.521 26.8421Z" fill="#37474F"/>
<path d="M36.1818 19.6997C35.9181 19.6997 35.6518 19.623 35.4181 19.4642C27.9249 14.3423 16.5343 14.3176 9.16077 16.9457C8.45413 17.1921 7.67682 16.8225 7.42678 16.108C7.17673 15.3962 7.54636 14.6133 8.25572 14.3614C16.2761 11.5062 28.7049 11.5664 36.9482 17.1975C37.5706 17.6219 37.7282 18.4732 37.3097 19.0974C37.0433 19.4889 36.6139 19.6997 36.1818 19.6997Z" fill="#37474F"/>
</g>
<defs>
<clipPath id="clip0_154:134">
<rect width="43.4858" height="43.8009" fill="white" transform="translate(0.25708 0.000244141)"/>
</clipPath>
</defs>
</svg>
