<svg width="44" height="44" viewBox="0 0 44 44" fill="none" xmlns="http://www.w3.org/2000/svg">
<g clip-path="url(#clip0_154:130)">
<path d="M41.6377 9.67634C40.4581 7.57815 39.178 7.19222 36.5716 7.04545C33.9678 6.86879 27.4205 6.79541 21.7483 6.79541C16.0653 6.79541 9.51524 6.86879 6.91424 7.04274C4.31325 7.19222 3.03042 7.57544 1.83999 9.67634C0.625108 11.7718 0 15.3811 0 21.7355C0 21.7409 0 21.7437 0 21.7437C0 21.7491 0 21.7518 0 21.7518V21.7572C0 28.0844 0.625108 31.7209 1.83999 33.7947C3.03042 35.8928 4.31053 36.2733 6.91153 36.45C9.51524 36.6022 16.0653 36.6919 21.7483 36.6919C27.4205 36.6919 33.9678 36.6022 36.5743 36.4527C39.1807 36.2761 40.4608 35.8956 41.6404 33.7974C42.8661 31.7236 43.4858 28.0871 43.4858 21.76C43.4858 21.76 43.4858 21.7518 43.4858 21.7464C43.4858 21.7464 43.4858 21.7409 43.4858 21.7382C43.4858 15.3811 42.8661 11.7718 41.6377 9.67634Z" fill="#F44336"/>
<path d="M16.3071 29.8973V13.5901L29.8964 21.7437L16.3071 29.8973Z" fill="#FAFAFA"/>
</g>
<defs>
<clipPath id="clip0_154:130">
<rect width="43.4858" height="43.4858" fill="white" transform="translate(0 0.000732422)"/>
</clipPath>
</defs>
</svg>
